HIERARCHY
ROOT Hips
{
  OFFSET 5.72205e-005 65.662 3.42586
  CHANNELS 6 Xposition Yposition Zposition Zrotation Xrotation Yrotation
  JOINT Chest
  {
    OFFSET 0 8.7983 -4.7612
    CHANNELS 6 Xposition Yposition Zposition Zrotation Xrotation Yrotation
    JOINT Chest2
    {
      OFFSET 0 8.0291 0.4195
      CHANNELS 6 Xposition Yposition Zposition Zrotation Xrotation Yrotation
      JOINT Chest3
      {
        OFFSET 0 9.9351 -2.2114
        CHANNELS 6 Xposition Yposition Zposition Zrotation Xrotation Yrotation
        JOINT Neck
        {
          OFFSET 0 22.3885 -0.4656
          CHANNELS 6 Xposition Yposition Zposition Zrotation Xrotation Yrotation
          JOINT Head
          {
            OFFSET -0.0001 12.643 3.4389
            CHANNELS 6 Xposition Yposition Zposition Zrotation Xrotation Yrotation
            End Site
            {
              OFFSET 0.0001 17.6655 0.5274
            }
          }
        }
        JOINT LeftCollar
        {
          OFFSET 2.2603 21.606 7.4023
          CHANNELS 6 Xposition Yposition Zposition Zrotation Xrotation Yrotation
          JOINT LeftShoulder
          {
            OFFSET 13.5163 -1.1332 -5.0146
            CHANNELS 6 Xposition Yposition Zposition Zrotation Xrotation Yrotation
            JOINT LeftElbow
            {
              OFFSET -0.0995 -28.05 -0.2431
              CHANNELS 6 Xposition Yposition Zposition Zrotation Xrotation Yrotation
              JOINT LeftWrist
              {
                OFFSET 0.0679 -23.3996 -0.1402
                CHANNELS 6 Xposition Yposition Zposition Zrotation Xrotation Yrotation
                JOINT LeftFinger1
                {
                  OFFSET 0.7932 -9.069 2.5189
                  CHANNELS 6 Xposition Yposition Zposition Zrotation Xrotation Yrotation
                  JOINT LeftFinger11
                  {
                    OFFSET -0.8272 -3.3923 0.5977
                    CHANNELS 6 Xposition Yposition Zposition Zrotation Xrotation Yrotation
                    JOINT LeftFinger12
                    {
                      OFFSET -0.5649 -2.3158 0.4082
                      CHANNELS 6 Xposition Yposition Zposition Zrotation Xrotation Yrotation
                      End Site
                      {
                        OFFSET -0.4919 -1.6479 0.2673
                      }
                    }
                  }
                }
                JOINT LeftFinger2
                {
                  OFFSET 0.9159 -9.2044 0.2193
                  CHANNELS 6 Xposition Yposition Zposition Zrotation Xrotation Yrotation
                  JOINT LeftFinger21
                  {
                    OFFSET 0.0117 -4.1944 -0.0248
                    CHANNELS 6 Xposition Yposition Zposition Zrotation Xrotation Yrotation
                    JOINT LeftFinger22
                    {
                      OFFSET 0.0071 -2.3249 -0.0142
                      CHANNELS 6 Xposition Yposition Zposition Zrotation Xrotation Yrotation
                      End Site
                      {
                        OFFSET -0.1475 -2.0882 0.0028
                      }
                    }
                  }
                }
                JOINT LeftFinger3
                {
                  OFFSET 0.6113 -8.7231 -2.0637
                  CHANNELS 6 Xposition Yposition Zposition Zrotation Xrotation Yrotation
                  JOINT LeftFinger31
                  {
                    OFFSET -0.1927 -3.8059 -0.2383
                    CHANNELS 6 Xposition Yposition Zposition Zrotation Xrotation Yrotation
                    JOINT LeftFinger32
                    {
                      OFFSET -0.1091 -2.1688 -0.1362
                      CHANNELS 6 Xposition Yposition Zposition Zrotation Xrotation Yrotation
                      End Site
                      {
                        OFFSET -0.2358 -1.9176 -0.0906
                      }
                    }
                  }
                }
                JOINT LeftFinger4
                {
                  OFFSET -0.6151 -8.0947 -3.5641
                  CHANNELS 6 Xposition Yposition Zposition Zrotation Xrotation Yrotation
                  JOINT LeftFinger41
                  {
                    OFFSET -0.4882 -2.341 -0.6462
                    CHANNELS 6 Xposition Yposition Zposition Zrotation Xrotation Yrotation
                    JOINT LeftFinger42
                    {
                      OFFSET -0.3575 -1.7167 -0.4742
                      CHANNELS 6 Xposition Yposition Zposition Zrotation Xrotation Yrotation
                      End Site
                      {
                        OFFSET -0.4187 -1.5237 -0.3496
                      }
                    }
                  }
                }
                JOINT LeftFinger0
                {
                  OFFSET -1.42 -1.8761 1.4223
                  CHANNELS 6 Xposition Yposition Zposition Zrotation Xrotation Yrotation
                  JOINT LeftFinger01
                  {
                    OFFSET -1.1471 -3.4929 2.6334
                    CHANNELS 6 Xposition Yposition Zposition Zrotation Xrotation Yrotation
                    JOINT LeftFinger02
                    {
                      OFFSET -0.823 -2.3 1.6571
                      CHANNELS 6 Xposition Yposition Zposition Zrotation Xrotation Yrotation
                      End Site
                      {
                        OFFSET -0.5822 -1.6914 1.1582
                      }
                    }
                  }
                }
              }
            }
          }
        }
        JOINT RightCollar
        {
          OFFSET -2.2603 21.606 7.4023
          CHANNELS 6 Xposition Yposition Zposition Zrotation Xrotation Yrotation
          JOINT RightShoulder
          {
            OFFSET -13.5187 -1.1334 -5.0155
            CHANNELS 6 Xposition Yposition Zposition Zrotation Xrotation Yrotation
            JOINT RightElbow
            {
              OFFSET 0.0994 -28.0499 -0.2431
              CHANNELS 6 Xposition Yposition Zposition Zrotation Xrotation Yrotation
              JOINT RightWrist
              {
                OFFSET -0.0679 -23.3996 -0.1402
                CHANNELS 6 Xposition Yposition Zposition Zrotation Xrotation Yrotation
                JOINT RightFinger1
                {
                  OFFSET -0.7932 -9.0691 2.5189
                  CHANNELS 6 Xposition Yposition Zposition Zrotation Xrotation Yrotation
                  JOINT RightFinger11
                  {
                    OFFSET 0.8272 -3.3923 0.5977
                    CHANNELS 6 Xposition Yposition Zposition Zrotation Xrotation Yrotation
                    JOINT RightFinger12
                    {
                      OFFSET 0.565 -2.3158 0.4082
                      CHANNELS 6 Xposition Yposition Zposition Zrotation Xrotation Yrotation
                      End Site
                      {
                        OFFSET 0.4919 -1.6479 0.2673
                      }
                    }
                  }
                }
                JOINT RightFinger2
                {
                  OFFSET -0.916 -9.2044 0.2193
                  CHANNELS 6 Xposition Yposition Zposition Zrotation Xrotation Yrotation
                  JOINT RightFinger21
                  {
                    OFFSET -0.0117 -4.1944 -0.0248
                    CHANNELS 6 Xposition Yposition Zposition Zrotation Xrotation Yrotation
                    JOINT RightFinger22
                    {
                      OFFSET -0.0071 -2.3249 -0.0142
                      CHANNELS 6 Xposition Yposition Zposition Zrotation Xrotation Yrotation
                      End Site
                      {
                        OFFSET 0.1475 -2.0882 0.0028
                      }
                    }
                  }
                }
                JOINT RightFinger3
                {
                  OFFSET -0.6113 -8.7231 -2.0637
                  CHANNELS 6 Xposition Yposition Zposition Zrotation Xrotation Yrotation
                  JOINT RightFinger31
                  {
                    OFFSET 0.1927 -3.8059 -0.2383
                    CHANNELS 6 Xposition Yposition Zposition Zrotation Xrotation Yrotation
                    JOINT RightFinger32
                    {
                      OFFSET 0.1091 -2.1688 -0.1362
                      CHANNELS 6 Xposition Yposition Zposition Zrotation Xrotation Yrotation
                      End Site
                      {
                        OFFSET 0.2358 -1.9176 -0.0906
                      }
                    }
                  }
                }
                JOINT RightFinger4
                {
                  OFFSET 0.6151 -8.0947 -3.564
                  CHANNELS 6 Xposition Yposition Zposition Zrotation Xrotation Yrotation
                  JOINT RightFinger41
                  {
                    OFFSET 0.4882 -2.341 -0.6462
                    CHANNELS 6 Xposition Yposition Zposition Zrotation Xrotation Yrotation
                    JOINT RightFinger42
                    {
                      OFFSET 0.3574 -1.7166 -0.4742
                      CHANNELS 6 Xposition Yposition Zposition Zrotation Xrotation Yrotation
                      End Site
                      {
                        OFFSET 0.4187 -1.5237 -0.3496
                      }
                    }
                  }
                }
                JOINT RightFinger0
                {
                  OFFSET 1.4199 -1.8761 1.4221
                  CHANNELS 6 Xposition Yposition Zposition Zrotation Xrotation Yrotation
                  JOINT RightFinger01
                  {
                    OFFSET 1.1472 -3.4929 2.6336
                    CHANNELS 6 Xposition Yposition Zposition Zrotation Xrotation Yrotation
                    JOINT RightFinger02
                    {
                      OFFSET 0.8229 -2.3 1.6571
                      CHANNELS 6 Xposition Yposition Zposition Zrotation Xrotation Yrotation
                      End Site
                      {
                        OFFSET 0.5822 -1.6914 1.1582
                      }
                    }
                  }
                }
              }
            }
          }
        }
      }
    }
  }
  JOINT RightHip
  {
    OFFSET -9.412 3.9771 -0.7758
    CHANNELS 6 Xposition Yposition Zposition Zrotation Xrotation Yrotation
    JOINT RightKnee
    {
      OFFSET -0.7531 -40.938 0
      CHANNELS 6 Xposition Yposition Zposition Zrotation Xrotation Yrotation
      JOINT RightAnkle
      {
        OFFSET 0 -40.1986 0
        CHANNELS 6 Xposition Yposition Zposition Zrotation Xrotation Yrotation
        JOINT RightToe
        {
          OFFSET 0 -4.4182 9.239
          CHANNELS 6 Xposition Yposition Zposition Zrotation Xrotation Yrotation
          End Site
          {
            OFFSET 0 0 6.1981
          }
        }
      }
    }
  }
  JOINT LeftHip
  {
    OFFSET 9.4119 3.9773 -0.7758
    CHANNELS 6 Xposition Yposition Zposition Zrotation Xrotation Yrotation
    JOINT LeftKnee
    {
      OFFSET 0.7532 -40.9383 0
      CHANNELS 6 Xposition Yposition Zposition Zrotation Xrotation Yrotation
      JOINT LeftAnkle
      {
        OFFSET 0 -40.1986 0
        CHANNELS 6 Xposition Yposition Zposition Zrotation Xrotation Yrotation
        JOINT LeftToe
        {
          OFFSET 0 -4.4182 9.239
          CHANNELS 6 Xposition Yposition Zposition Zrotation Xrotation Yrotation
          End Site
          {
            OFFSET 0 0 6.1981
          }
        }
      }
    }
  }
}
MOTION
Frames:	4
Frame Time:	0.0333333
5.72205e-005 65.662 3.42586 0 0 -0 0 8.7983 -4.7612 0 0 -0 0 8.0291 0.4195 0 0 -0 0 9.9351 -2.2114 0 0 -0 0 22.3885 -0.4656 0 0 -0 -0.0001 12.643 3.4389 0 0 -0 2.2603 21.606 7.4023 0 0 -12.5014 13.5163 -1.1332 -5.0146 88.1196 14.2451 10.6914 -0.0995 -28.05 -0.2431 -0.00160068 -0.00239207 0.000740045 0.0679 -23.3996 -0.1402 -8.4365e-005 7.00714e-005 -9.52055e-007 0.7932 -9.069 2.5189 9.93923e-017 -1.98785e-016 -1.59028e-015 -0.8272 -3.3923 0.5977 9.93923e-017 -5.96354e-016 -1.59028e-015 -0.5649 -2.3158 0.4082 -9.93923e-017 -5.96354e-016 -1.59028e-015 0.9159 -9.2044 0.2193 9.93923e-017 -1.98785e-016 -1.59028e-015 0.0117 -4.1944 -0.0248 -0.0128176 0.00232552 8.52707e-005 0.0071 -2.3249 -0.0142 9.93923e-017 5.96354e-016 -0 0.6113 -8.7231 -2.0637 9.93923e-017 -1.98785e-016 -1.59028e-015 -0.1927 -3.8059 -0.2383 -0.0160551 0.00299681 0.000857156 -0.1091 -2.1688 -0.1362 -2.48481e-016 0 3.18055e-015 -0.6151 -8.0947 -3.5641 9.93923e-017 -1.98785e-016 -1.59028e-015 -0.4882 -2.341 -0.6462 -0.0125865 0.0031206 0.00282719 -0.3575 -1.7167 -0.4742 0 1.98785e-016 -0 -1.42 -1.8761 1.4223 9.93923e-017 -1.98785e-016 -1.59028e-015 -1.1471 -3.4929 2.6334 9.93923e-017 -5.96354e-016 -1.59028e-015 -0.823 -2.3 1.6571 -9.93923e-017 -5.96354e-016 -1.59028e-015 -2.2603 21.606 7.4023 -0.865644 0.16582 7.03859 -13.5187 -1.1334 -5.0155 -88.0329 10.2057 -10.5567 0.0994 -28.0499 -0.2431 0.0015593 -0.00248883 -0.000788628 -0.0679 -23.3996 -0.1402 7.87605e-005 4.10553e-005 1.24965e-005 -0.7932 -9.0691 2.5189 -3.97569e-016 -7.95139e-016 3.18055e-015 0.8272 -3.3923 0.5977 -1.98785e-016 -3.97569e-016 3.18055e-015 0.565 -2.3158 0.4082 -1.98785e-016 0 3.18055e-015 -0.916 -9.2044 0.2193 -3.97569e-016 -7.95139e-016 3.18055e-015 -0.0117 -4.1944 -0.0248 0.0129473 0.00231697 -8.70038e-005 -0.0071 -2.3249 -0.0142 9.93923e-017 -7.95139e-016 1.59028e-015 -0.6113 -8.7231 -2.0637 -3.97569e-016 -7.95139e-016 3.18055e-015 0.1927 -3.8059 -0.2383 0.0163314 0.00303369 -0.000872333 0.1091 -2.1688 -0.1362 3.97569e-016 7.95139e-016 -3.18055e-015 0.6151 -8.0947 -3.564 -3.97569e-016 -7.95139e-016 3.18055e-015 0.4882 -2.341 -0.6462 0.0145763 0.00367772 -0.00326275 0.3574 -1.7166 -0.4742 9.93923e-017 -3.97569e-016 -0 1.4199 -1.8761 1.4221 -3.97569e-016 -7.95139e-016 3.18055e-015 1.1472 -3.4929 2.6336 -1.98785e-016 -3.97569e-016 3.18055e-015 0.8229 -2.3 1.6571 -1.98785e-016 0 3.18055e-015 -9.412 3.9771 -0.7758 3.42482 1.32465 -0.0626183 -0.7531 -40.938 0 0.000117508 0.717283 0.000978199 0 -40.1986 0 -3.4257 -2.04197 -0.0604716 8.88178e-016 -4.4182 9.239 6.47761e-025 0 -0 9.4119 3.9773 -0.7758 -3.42483 1.34017 0.0627307 0.7532 -40.9383 -2.22045e-016 -0.000193936 0.682302 -0.0013703 -8.88179e-016 -40.1986 0 3.42574 -2.02253 0.0595886 -8.88178e-016 -4.4182 9.239 -8.45714e-024 0 -7.40531e-025 
0.174446 16.2437 63.3062 -5.04377e-010 -66.6681 1.86844e-009 2.77556e-017 8.7983 -4.7612 -0.0907682 1.361 -0.109221 -5.55112e-017 8.0291 0.4195 -0.179017 2.72216 -0.216376 0 9.9351 -2.2114 -0.179016 2.72219 -0.216376 0 22.3885 -0.4656 -2.39941e-007 31.8207 -1.22154e-006 -0.0001 12.643 3.4389 -2.39613e-008 -16.2026 7.05366e-008 2.2603 21.606 7.4023 -17.2367 -7.34534 -2.24835 13.5163 -1.1332 -5.0146 45.0103 -21.0234 12.5863 -0.0995 -28.05 -0.2431 -41.8935 -80.3826 -19.3939 0.0679 -23.3996 -0.1402 -24.5309 22.9189 -6.12021 0.7932 -9.069 2.5189 -8.78529e-007 1.69278e-007 -1.43826e-006 -0.8272 -3.3923 0.5977 8.78529e-007 -1.69278e-007 1.43826e-006 -0.5649 -2.3158 0.4082 -8.78529e-007 1.69278e-007 -1.43826e-006 0.9159 -9.2044 0.2193 -8.78529e-007 1.69278e-007 -1.43826e-006 0.0117 -4.1944 -0.0248 -0.0127576 0.00231731 9.37952e-005 0.0071 -2.3249 -0.0142 -2.18551e-007 -2.14732e-006 -2.88234e-006 0.6113 -8.7231 -2.0637 -8.78529e-007 1.69278e-007 -1.43826e-006 -0.1927 -3.8059 -0.2383 -0.0160482 0.00298626 0.000862491 -0.1091 -2.1688 -0.1362 6.54009e-007 -7.91471e-008 -1.09642e-006 -0.6151 -8.0947 -3.5641 -8.78529e-007 1.69278e-007 -1.43826e-006 -0.4882 -2.341 -0.6462 -0.0125819 0.00312666 0.00283216 -0.3575 -1.7167 -0.4742 -8.78253e-007 1.69673e-007 -1.43835e-006 -1.42 -1.8761 1.4223 -8.78529e-007 1.69278e-007 -1.43826e-006 -1.1471 -3.4929 2.6334 8.78529e-007 -1.69278e-007 1.43826e-006 -0.823 -2.3 1.6571 -8.78529e-007 1.69278e-007 -1.43826e-006 -2.2603 21.606 7.4023 10.9878 -5.88274 2.61342 -13.5187 -1.1334 -5.0155 -42.3691 -11.9937 -7.94209 0.0994 -28.0499 -0.2431 17.9222 -62.3095 -5.74364 -0.0679 -23.3996 -0.1402 29.4372 -1.25642 13.6682 -0.7932 -9.0691 2.5189 -1.47633e-006 8.00008e-008 -3.041e-006 0.8272 -3.3923 0.5977 -2.98177e-015 6.36111e-015 7.95139e-016 0.565 -2.3158 0.4082 -5.26779e-015 3.22087e-007 -7.95139e-016 -0.916 -9.2044 0.2193 -1.47633e-006 8.00008e-008 -3.041e-006 -0.0117 -4.1944 -0.0248 0.0129248 0.00231773 -7.8585e-005 -0.0071 -2.3249 -0.0142 -1.2921e-015 0 -1.39149e-015 -0.6113 -8.7231 -2.0637 -1.47633e-006 8.00008e-008 -3.041e-006 0.1927 -3.8059 -0.2383 0.0163685 0.00302805 -0.000862684 0.1091 -2.1688 -0.1362 8.02895e-008 4.24325e-006 -3.15526e-006 0.6151 -8.0947 -3.564 -1.47633e-006 8.00008e-008 -3.041e-006 0.4882 -2.341 -0.6462 0.0145749 0.00367694 -0.00325525 0.3574 -1.7166 -0.4742 -1.47568e-006 2.74518e-006 -3.04119e-006 1.4199 -1.8761 1.4221 -1.47633e-006 8.00008e-008 -3.041e-006 1.1472 -3.4929 2.6336 -2.98177e-015 6.36111e-015 7.95139e-016 0.8229 -2.3 1.6571 -5.26779e-015 3.22087e-007 -7.95139e-016 -9.412 3.9771 -0.7758 -2.16624 -10.4939 3.61852 -0.7531 -40.938 0 1.57761 34.0951 -1.63529 3.55271e-015 -40.1986 0 -3.37921 9.29613 -6.51017 0 -4.4182 9.239 2.19789e-006 1.27248e-005 1.38095e-006 9.4119 3.9773 -0.7758 9.74283 2.12905 -4.39213 0.7532 -40.9383 0 1.37874 7.13839 -0.153704 -3.55271e-015 -40.1986 -2.13163e-014 4.57573 8.52318 6.45891 -3.55271e-015 -4.4182 9.239 -4.13941e-006 1.26158e-005 -8.77937e-007 
0.26482 -4.87875 86.2442 -180 -83.3313 -180 -5.55111e-017 8.7983 -4.7612 -0.134829 1.97324 -0.155047 -5.55112e-017 8.0291 0.4195 -0.264546 3.94684 -0.305717 0 9.9351 -2.2114 -0.264547 3.94683 -0.305718 0 22.3885 -0.4656 -1.00233e-006 46.2825 8.93021e-006 -0.0001 12.643 3.4389 -1.19886e-007 -23.9596 -1.36213e-007 2.2603 21.606 7.4023 -24.129 -10.4613 2.49718 13.5163 -1.1332 -5.0146 29.0662 -38.5047 14.0041 -0.0995 -28.05 -0.2431 -115.529 -52.3545 -85.5721 0.0679 -23.3996 -0.1402 -36.118 33.1483 -8.54838 0.7932 -9.069 2.5189 1.55417e-005 8.90498e-006 1.12483e-006 -0.8272 -3.3923 0.5977 5.56597e-015 6.36111e-015 3.18055e-015 -0.5649 -2.3158 0.4082 7.15625e-015 3.18055e-015 -3.18055e-015 0.9159 -9.2044 0.2193 1.55417e-005 8.90498e-006 1.12483e-006 0.0117 -4.1944 -0.0248 -0.0128221 0.00230766 7.7817e-005 0.0071 -2.3249 -0.0142 -5.85564e-007 1.49465e-006 -2.5918e-006 0.6113 -8.7231 -2.0637 1.55417e-005 8.90498e-006 1.12483e-006 -0.1927 -3.8059 -0.2383 -0.0160759 0.00300093 0.000851778 -0.1091 -2.1688 -0.1362 -3.33755e-007 -6.11956e-006 4.90916e-006 -0.6151 -8.0947 -3.5641 1.55417e-005 8.90498e-006 1.12483e-006 -0.4882 -2.341 -0.6462 -0.0126519 0.0031286 0.00282997 -0.3575 -1.7167 -0.4742 -8.74653e-015 -2.00619e-006 -0 -1.42 -1.8761 1.4223 1.55417e-005 8.90498e-006 1.12483e-006 -1.1471 -3.4929 2.6334 5.56597e-015 6.36111e-015 3.18055e-015 -0.823 -2.3 1.6571 7.15625e-015 3.18055e-015 -3.18055e-015 -2.2603 21.606 7.4023 16.0158 -8.57651 0.583774 -13.5187 -1.1334 -5.0155 -22.7973 -23.0471 -6.26951 0.0994 -28.0499 -0.2431 99.3296 -77.2901 66.3493 -0.0679 -23.3996 -0.1402 42.7701 -1.95775 18.9066 -0.7932 -9.0691 2.5189 -1.59028e-015 -3.18055e-015 -0 0.8272 -3.3923 0.5977 -3.60481e-007 -3.02146e-006 1.20272e-005 0.565 -2.3158 0.4082 1.59028e-015 -3.18055e-015 9.54166e-015 -0.916 -9.2044 0.2193 -1.59028e-015 -3.18055e-015 -0 -0.0117 -4.1944 -0.0248 0.0129463 0.00230714 -8.01514e-005 -0.0071 -2.3249 -0.0142 -3.18055e-015 6.36111e-015 3.18055e-015 -0.6113 -8.7231 -2.0637 -1.59028e-015 -3.18055e-015 -0 0.1927 -3.8059 -0.2383 0.0163276 0.00303119 -0.000863772 0.1091 -2.1688 -0.1362 1.00539e-005 2.92349e-006 -7.2305e-006 0.6151 -8.0947 -3.564 -1.59028e-015 -3.18055e-015 -0 0.4882 -2.341 -0.6462 0.0145662 0.00367387 -0.00325092 0.3574 -1.7166 -0.4742 -1.59028e-015 6.36111e-015 -3.18055e-015 1.4199 -1.8761 1.4221 -1.59028e-015 -3.18055e-015 -0 1.1472 -3.4929 2.6336 -3.60481e-007 -3.02146e-006 1.20272e-005 0.8229 -2.3 1.6571 1.59028e-015 -3.18055e-015 9.54166e-015 -9.412 3.9771 -0.7758 -4.12084 -15.4281 5.15244 -0.7531 -40.938 7.10543e-015 2.59567 48.594 -2.62104 -1.77636e-015 -40.1986 1.42109e-014 -2.38854 14.4327 -9.45116 0 -4.4182 9.239 1.47216e-006 1.60464e-007 -4.32092e-007 9.4119 3.9773 -0.7758 15.6515 2.59321 -6.11811 0.7532 -40.9383 0 2.0349 10.0307 -0.23966 0 -40.1986 0 4.45162 12.9589 9.24427 0 -4.4182 9.239 -2.29389e-006 -9.34461e-007 1.97622e-006 
0.242988 -0.127365 81.376 179.996 -89.9981 179.996 0 8.7983 -4.7612 -0.124865 1.83718 -0.145049 0 8.0291 0.4195 -0.245264 3.67468 -0.286311 0 9.9351 -2.2114 -0.245264 3.67468 -0.286311 0 22.3885 -0.4656 -7.40374e-008 43.3856 -1.0335e-007 -0.0001 12.643 3.4389 4.27881e-009 -23.2713 -2.58139e-007 2.2603 21.606 7.4023 -22.6436 -9.78468 1.43209 13.5163 -1.1332 -5.0146 32.3985 -34.5757 13.5737 -0.0995 -28.05 -0.2431 -114.592 -60.7296 -86.1922 0.0679 -23.3996 -0.1402 -34.1629 30.9941 -7.97815 0.7932 -9.069 2.5189 -1.69982e-005 -3.95229e-006 1.44363e-006 -0.8272 -3.3923 0.5977 1.1644e-006 -1.42071e-006 -1.16708e-006 -0.5649 -2.3158 0.4082 -2.03924e-006 1.34195e-007 1.42666e-006 0.9159 -9.2044 0.2193 -1.69982e-005 -3.95229e-006 1.44363e-006 0.0117 -4.1944 -0.0248 -0.0128167 0.00232313 7.99094e-005 0.0071 -2.3249 -0.0142 -1.08821e-005 -2.11828e-006 -2.83678e-006 0.6113 -8.7231 -2.0637 -1.69982e-005 -3.95229e-006 1.44363e-006 -0.1927 -3.8059 -0.2383 -0.0160676 0.00299973 0.000861111 -0.1091 -2.1688 -0.1362 -6.96714e-006 4.93575e-007 -7.20022e-006 -0.6151 -8.0947 -3.5641 -1.69982e-005 -3.95229e-006 1.44363e-006 -0.4882 -2.341 -0.6462 -0.0125921 0.00312349 0.00283508 -0.3575 -1.7167 -0.4742 -2.03881e-006 2.87708e-006 1.42643e-006 -1.42 -1.8761 1.4223 -1.69982e-005 -3.95229e-006 1.44363e-006 -1.1471 -3.4929 2.6334 1.1644e-006 -1.42071e-006 -1.16708e-006 -0.823 -2.3 1.6571 -2.03924e-006 1.34195e-007 1.42666e-006 -2.2603 21.606 7.4023 14.9151 -7.98022 1.03801 -13.5187 -1.1334 -5.0155 -27.1146 -20.5552 -6.6723 0.0994 -28.0499 -0.2431 67.6969 -77.3033 36.7939 -0.0679 -23.3996 -0.1402 40.0928 -1.71926 17.8139 -0.793201 -9.0691 2.5189 -5.56597e-015 0 3.18055e-015 0.827201 -3.3923 0.5977 -5.14142e-007 2.68895e-006 5.27949e-006 0.565 -2.3158 0.4082 -1.03368e-014 0 -3.18055e-015 -0.916001 -9.2044 0.2193 -5.56597e-015 0 3.18055e-015 -0.0117 -4.1944 -0.0248 0.0129568 0.00231663 -7.95251e-005 -0.00710001 -2.3249 -0.0142 7.95139e-016 0 3.18055e-015 -0.6113 -8.7231 -2.0637 -5.56597e-015 0 3.18055e-015 0.1927 -3.8059 -0.2383 0.0163107 0.00303118 -0.000871228 0.1091 -2.1688 -0.1362 -7.15625e-015 0 -6.36111e-015 0.615101 -8.0947 -3.564 -5.56597e-015 0 3.18055e-015 0.4882 -2.341 -0.6462 0.0145949 0.0036868 -0.00326037 0.3574 -1.7166 -0.4742 6.36111e-015 3.18055e-015 -4.77083e-015 1.4199 -1.8761 1.4221 -5.56597e-015 0 3.18055e-015 1.1472 -3.4929 2.6336 -5.14142e-007 2.68895e-006 5.27949e-006 0.822901 -2.3 1.6571 -1.03368e-014 0 -3.18055e-015 -9.412 3.9771 -0.7758 -3.95998 -14.3357 4.32734 -0.7531 -40.938 3.55271e-015 2.32596 45.3554 -2.37095 0 -40.1986 0 -2.98168 13.308 -8.30203 7.10543e-015 -4.4182 9.239 1.48462e-007 -1.02658e-008 -1.53224e-007 9.4119 3.9773 -0.7758 14.4101 2.49433 -5.13179 0.7532 -40.9383 1.77636e-015 1.88608 9.1905 -0.219873 -3.55271e-015 -40.1986 0 4.70144 11.9891 7.98644 -7.10543e-015 -4.4182 9.239 2.55616e-006 7.64655e-007 1.97973e-006 
